<?xml version="1.0" encoding="UTF-8"?>
<!DOCTYPE svg PUBLIC "-//W3C//DTD SVG 1.1//EN" "http://www.w3.org/Graphics/SVG/1.1/DTD/svg11.dtd">
<svg xmlns="http://www.w3.org/2000/svg" version="1.1" width="512px" height="512px" style="shape-rendering:geometricPrecision; text-rendering:geometricPrecision; image-rendering:optimizeQuality; fill-rule:evenodd; clip-rule:evenodd" xmlns:xlink="http://www.w3.org/1999/xlink">
<g><path style="opacity:0.948" fill="#00eca2" d="M 327.5,51.5 C 341.574,52.4073 347.074,59.7406 344,73.5C 338.151,81.7502 330.651,83.5835 321.5,79C 314.954,72.7793 313.787,65.6126 318,57.5C 320.855,54.7731 324.022,52.7731 327.5,51.5 Z M 329.5,62.5 C 334.305,63.5995 335.305,66.0995 332.5,70C 328,70.8333 326.167,69 327,64.5C 327.995,63.9341 328.828,63.2674 329.5,62.5 Z"/></g>
<g><path style="opacity:0.916" fill="#ff7db7" d="M 281.5,74.5 C 283.857,74.3367 286.19,74.5034 288.5,75C 292,78.5 295.5,82 299,85.5C 301.06,92.4381 298.56,95.2714 291.5,94C 289.333,91.8333 287.167,89.6667 285,87.5C 282.795,90.0402 280.295,92.2068 277.5,94C 270.875,94.5842 268.708,91.7508 271,85.5C 274.704,81.9643 278.204,78.2976 281.5,74.5 Z"/></g>
<g><path style="opacity:0.992" fill="#2827bc" d="M 462.5,102.5 C 481.549,125.826 486.216,151.826 476.5,180.5C 470.607,193.614 462.274,204.948 451.5,214.5C 423.813,232.379 395.146,234.212 365.5,220C 349.604,232.863 333.438,245.363 317,257.5C 319.602,261.915 323.435,265.249 328.5,267.5C 367.319,298.075 406.319,328.408 445.5,358.5C 445.56,359.043 445.893,359.376 446.5,359.5C 447.5,318.172 447.833,276.839 447.5,235.5C 448.048,232.916 449.715,231.916 452.5,232.5C 454.062,232.733 455.395,233.4 456.5,234.5C 456.5,235.167 456.5,235.833 456.5,236.5C 456.168,275.67 456.501,314.67 457.5,353.5C 457.666,359.842 457.5,366.175 457,372.5C 456.333,376.83 454.833,380.83 452.5,384.5C 447.903,389.338 442.57,392.504 436.5,394C 315.833,394.351 195.166,394.184 74.5,393.5C 67.8564,392.176 62.5231,388.843 58.5,383.5C 57.243,380.904 56.0764,378.237 55,375.5C 54.8328,321.665 54.3328,267.998 53.5,214.5C 53.3334,191.164 53.5,167.831 54,144.5C 55.6749,134.966 60.8415,128.133 69.5,124C 150.122,122.511 230.789,122.011 311.5,122.5C 312.167,124.167 312.833,125.833 313.5,127.5C 313.703,129.39 313.037,130.89 311.5,132C 232.833,132.333 154.167,132.667 75.5,133C 69.4835,135.274 65.9835,139.441 65,145.5C 127.229,194.03 189.729,242.196 252.5,290C 255.88,290.938 258.88,290.271 261.5,288C 293.667,263.327 325.667,238.494 357.5,213.5C 331.176,190.223 322.842,161.556 332.5,127.5C 342.996,101.6 361.663,84.9329 388.5,77.5C 417.95,72.3156 442.616,80.6489 462.5,102.5 Z"/></g>
<g><path style="opacity:0.973" fill="#fbd7ec" d="M 388.5,77.5 C 361.663,84.9329 342.996,101.6 332.5,127.5C 326.167,127.5 319.833,127.5 313.5,127.5C 312.833,125.833 312.167,124.167 311.5,122.5C 327.704,91.88 353.371,76.88 388.5,77.5 Z"/></g>
<g><path style="opacity:1" fill="#fe5ba8" d="M 396.5,86.5 C 437.585,85.7783 462.418,105.445 471,145.5C 472.133,182.696 454.966,206.863 419.5,218C 390.023,223.004 366.523,213.504 349,189.5C 329.73,152.021 336.897,120.854 370.5,96C 378.747,91.3102 387.414,88.1435 396.5,86.5 Z"/></g>
<g><path style="opacity:1" fill="#fffdfe" d="M 376.5,170.5 C 387.261,166.288 397.927,161.788 408.5,157C 410.19,153.475 409.524,150.475 406.5,148C 396.517,143.73 386.517,139.563 376.5,135.5C 374.454,132.086 373.621,128.419 374,124.5C 375.525,121.913 377.692,121.08 380.5,122C 401.136,130.983 421.803,139.983 442.5,149C 445.167,151.667 445.167,154.333 442.5,157C 421.833,166 401.167,175 380.5,184C 374.839,184.667 372.672,182.167 374,176.5C 374.938,174.512 375.772,172.512 376.5,170.5 Z"/></g>
<g><path style="opacity:1" fill="#b6c4fe" d="M 313.5,127.5 C 319.833,127.5 326.167,127.5 332.5,127.5C 322.842,161.556 331.176,190.223 357.5,213.5C 325.667,238.494 293.667,263.327 261.5,288C 258.88,290.271 255.88,290.938 252.5,290C 189.729,242.196 127.229,194.03 65,145.5C 65.9835,139.441 69.4835,135.274 75.5,133C 154.167,132.667 232.833,132.333 311.5,132C 313.037,130.89 313.703,129.39 313.5,127.5 Z"/></g>
<g><path style="opacity:1" fill="#ffdaec" d="M 376.5,135.5 C 386.517,139.563 396.517,143.73 406.5,148C 409.524,150.475 410.19,153.475 408.5,157C 397.927,161.788 387.261,166.288 376.5,170.5C 378.729,164.651 381.062,158.817 383.5,153C 381.015,147.202 378.682,141.368 376.5,135.5 Z"/></g>
<g><path style="opacity:0.994" fill="#e5d4f3" d="M 462.5,102.5 C 485.362,118.901 500.196,140.901 507,168.5C 508.628,176.619 510.128,184.619 511.5,192.5C 511.5,192.833 511.5,193.167 511.5,193.5C 493.449,207.552 475.116,221.218 456.5,234.5C 455.395,233.4 454.062,232.733 452.5,232.5C 452.5,232.167 452.5,231.833 452.5,231.5C 467.185,217.79 475.185,200.79 476.5,180.5C 486.216,151.826 481.549,125.826 462.5,102.5 Z"/></g>
<g><path style="opacity:1" fill="#8298fd" d="M 64.5,158.5 C 107.624,191.117 150.624,223.951 193.5,257C 194.451,257.718 194.617,258.551 194,259.5C 190.227,262.629 186.394,265.629 182.5,268.5C 143.761,237.432 104.428,207.099 64.5,177.5C 64.5,171.167 64.5,164.833 64.5,158.5 Z"/></g>
<g><path style="opacity:1" fill="#3c3fc8" d="M 64.5,158.5 C 64.5,164.833 64.5,171.167 64.5,177.5C 64.1676,238.002 64.5009,298.336 65.5,358.5C 65.44,359.043 65.1067,359.376 64.5,359.5C 63.1683,292.335 63.1683,225.335 64.5,158.5 Z"/></g>
<g><path style="opacity:1" fill="#9eaffd" d="M 64.5,177.5 C 104.428,207.099 143.761,237.432 182.5,268.5C 143.476,298.531 104.476,328.531 65.5,358.5C 64.5009,298.336 64.1676,238.002 64.5,177.5 Z"/></g>
<g><path style="opacity:1" fill="#cfc1ee" d="M 476.5,180.5 C 475.185,200.79 467.185,217.79 452.5,231.5C 451.511,226.025 451.178,220.358 451.5,214.5C 462.274,204.948 470.607,193.614 476.5,180.5 Z"/></g>
<g><path style="opacity:0.995" fill="#ded4f6" d="M 511.5,193.5 C 511.5,206.833 511.5,220.167 511.5,233.5C 510.159,244.189 508.159,254.856 505.5,265.5C 489.563,276.925 473.729,288.591 458,300.5C 457.832,278.996 457.332,257.663 456.5,236.5C 456.5,235.833 456.5,235.167 456.5,234.5C 475.116,221.218 493.449,207.552 511.5,193.5 Z"/></g>
<g><path style="opacity:1" fill="#8298fd" d="M 451.5,214.5 C 451.178,220.358 451.511,226.025 452.5,231.5C 452.5,231.833 452.5,232.167 452.5,232.5C 449.715,231.916 448.048,232.916 447.5,235.5C 446.833,235.5 446.5,235.833 446.5,236.5C 428.525,248.536 408.859,252.369 387.5,248C 379.994,245.913 372.994,242.746 366.5,238.5C 353.815,248.191 341.148,257.857 328.5,267.5C 323.435,265.249 319.602,261.915 317,257.5C 333.438,245.363 349.604,232.863 365.5,220C 395.146,234.212 423.813,232.379 451.5,214.5 Z"/></g>
<g><path style="opacity:0.991" fill="#fed8ec" d="M 53.5,215.5 C 53.6667,257.168 53.5,298.835 53,340.5C 37.7389,352.54 22.2389,364.207 6.5,375.5C 3.50883,365.196 1.17549,354.863 -0.5,344.5C -0.5,331.833 -0.5,319.167 -0.5,306.5C 3.70868,272.917 18.3753,244.75 43.5,222C 46.4645,219.19 49.7978,217.024 53.5,215.5 Z"/></g>
<g><path style="opacity:1" fill="#3c3fc9" d="M 447.5,235.5 C 447.833,276.839 447.5,318.172 446.5,359.5C 445.893,359.376 445.56,359.043 445.5,358.5C 446.499,318.003 446.832,277.337 446.5,236.5C 446.5,235.833 446.833,235.5 447.5,235.5 Z"/></g>
<g><path style="opacity:1" fill="#9eaffd" d="M 446.5,236.5 C 446.832,277.337 446.499,318.003 445.5,358.5C 406.319,328.408 367.319,298.075 328.5,267.5C 341.148,257.857 353.815,248.191 366.5,238.5C 372.994,242.746 379.994,245.913 387.5,248C 408.859,252.369 428.525,248.536 446.5,236.5 Z"/></g>
<g><path style="opacity:1" fill="#6482fd" d="M 319.5,274.5 C 303.328,287.168 286.994,299.668 270.5,312C 260.5,316.667 250.5,316.667 240.5,312C 224.006,299.668 207.672,287.168 191.5,274.5C 194.642,271.531 197.975,268.698 201.5,266C 202.5,265.333 203.5,265.333 204.5,266C 218.5,276.667 232.5,287.333 246.5,298C 253.921,301.758 260.921,301.091 267.5,296C 280.215,285.617 293.215,275.617 306.5,266C 307.5,265.333 308.5,265.333 309.5,266C 313.025,268.698 316.358,271.531 319.5,274.5 Z"/></g>
<g><path style="opacity:0.989" fill="#d6d1f8" d="M 456.5,236.5 C 457.332,257.663 457.832,278.996 458,300.5C 473.729,288.591 489.563,276.925 505.5,265.5C 498.354,299.9 482.354,329.233 457.5,353.5C 456.501,314.67 456.168,275.67 456.5,236.5 Z"/></g>
<g><path style="opacity:1" fill="#8298fd" d="M 191.5,274.5 C 207.672,287.168 224.006,299.668 240.5,312C 250.5,316.667 260.5,316.667 270.5,312C 286.994,299.668 303.328,287.168 319.5,274.5C 362.242,306.401 404.575,338.901 446.5,372C 444.893,377.875 441.226,381.875 435.5,384C 315.5,384.667 195.5,384.667 75.5,384C 69.7736,381.875 66.1069,377.875 64.5,372C 106.503,339.007 148.836,306.507 191.5,274.5 Z"/></g>
<g><path style="opacity:1" fill="#03feb3" d="M 335.5,330.5 C 348.217,330.186 360.883,330.519 373.5,331.5C 374.192,332.025 374.692,332.692 375,333.5C 375.805,342.548 375.639,351.548 374.5,360.5C 373.975,361.192 373.308,361.692 372.5,362C 360.167,362.667 347.833,362.667 335.5,362C 335,361.5 334.5,361 334,360.5C 333.333,351.167 333.333,341.833 334,332.5C 334.717,331.956 335.217,331.289 335.5,330.5 Z"/></g>
<g><path style="opacity:1" fill="#fafbff" d="M 280.5,332.5 C 291.505,332.333 302.505,332.5 313.5,333C 317.482,335.952 317.482,338.952 313.5,342C 302.833,342.667 292.167,342.667 281.5,342C 277.956,339.127 277.623,335.96 280.5,332.5 Z"/></g>
<g><path style="opacity:0.993" fill="#f4d5ed" d="M 53.5,214.5 C 54.3328,267.998 54.8328,321.665 55,375.5C 56.0764,378.237 57.243,380.904 58.5,383.5C 58.5,384.5 58.5,385.5 58.5,386.5C 59.0414,389.652 58.0414,392.152 55.5,394C 46.008,400.665 36.6747,407.498 27.5,414.5C 18.1834,402.874 11.1834,389.874 6.5,375.5C 22.2389,364.207 37.7389,352.54 53,340.5C 53.5,298.835 53.6667,257.168 53.5,215.5C 53.5,215.167 53.5,214.833 53.5,214.5 Z"/></g>
<g><path style="opacity:1" fill="#fdfdff" d="M 211.5,352.5 C 245.502,352.333 279.502,352.5 313.5,353C 317.482,356.048 317.482,359.048 313.5,362C 279.5,362.667 245.5,362.667 211.5,362C 207.562,358.887 207.562,355.72 211.5,352.5 Z"/></g>
<g><path style="opacity:0.099" fill="#2b2ab9" d="M 452.5,384.5 C 454.989,398.359 449.989,408.192 437.5,414C 357.167,414.5 276.834,414.667 196.5,414.5C 205.756,407.528 215.423,401.028 225.5,395C 174.998,394.833 124.665,394.333 74.5,393.5C 195.166,394.184 315.833,394.351 436.5,394C 442.57,392.504 447.903,389.338 452.5,384.5 Z"/></g>
<g><path style="opacity:1" fill="#d7c4ec" d="M 58.5,383.5 C 62.5231,388.843 67.8564,392.176 74.5,393.5C 124.665,394.333 174.998,394.833 225.5,395C 215.423,401.028 205.756,407.528 196.5,414.5C 196.167,414.5 195.833,414.5 195.5,414.5C 155.165,414.667 114.832,414.5 74.5,414C 62.3427,408.857 57.0094,399.691 58.5,386.5C 58.5,385.5 58.5,384.5 58.5,383.5 Z"/></g>
<g><path style="opacity:0.994" fill="#ead5f2" d="M 58.5,386.5 C 57.0094,399.691 62.3427,408.857 74.5,414C 114.832,414.5 155.165,414.667 195.5,414.5C 189.11,419.556 182.443,424.223 175.5,428.5C 173.448,427.29 171.282,426.29 169,425.5C 162.055,428.611 156.888,433.611 153.5,440.5C 118.029,456.406 83.3627,454.906 49.5,436C 40.9784,429.978 33.6451,422.811 27.5,414.5C 36.6747,407.498 46.008,400.665 55.5,394C 58.0414,392.152 59.0414,389.652 58.5,386.5 Z"/></g>
<g><path style="opacity:0.928" fill="#ff7db7" d="M 428.5,419.5 C 430.308,419.491 431.975,419.991 433.5,421C 437,424.5 440.5,428 444,431.5C 445.73,437.589 443.563,440.422 437.5,440C 434.705,438.207 432.205,436.04 430,433.5C 427.795,436.04 425.295,438.207 422.5,440C 416.667,440.833 414.167,438.333 415,432.5C 419.395,427.936 423.895,423.602 428.5,419.5 Z"/></g>
<g><path style="opacity:0.958" fill="#6784fd" d="M 175.5,428.5 C 177.795,431.297 180.295,433.964 183,436.5C 184.143,443.696 181.309,446.196 174.5,444C 172.65,441.982 170.65,440.149 168.5,438.5C 165.786,441.215 162.786,443.549 159.5,445.5C 156.28,445.22 154.28,443.553 153.5,440.5C 156.888,433.611 162.055,428.611 169,425.5C 171.282,426.29 173.448,427.29 175.5,428.5 Z"/></g>
<g><path style="opacity:0.953" fill="#01eca2" d="M 213.5,429.5 C 224.715,428.259 231.382,433.092 233.5,444C 230.662,457.753 222.662,462.087 209.5,457C 202.337,449.543 201.671,441.543 207.5,433C 209.432,431.541 211.432,430.375 213.5,429.5 Z M 216.5,440.5 C 220.605,440.496 222.105,442.496 221,446.5C 217.828,449.388 215.661,448.722 214.5,444.5C 214.752,442.927 215.418,441.594 216.5,440.5 Z"/></g>
</svg>
